<mxfile modified="2023-04-08T14:33:13.310Z" host="app.diagrams.net" agent="Mozilla/5.0 (Macintosh; Intel Mac OS X 10_15_7) AppleWebKit/537.36 (KHTML, like Gecko) Chrome/110.0.0.0 Safari/537.36" etag="9Hk_lRWMwCiKbzwLmegn" version="21.1.5" type="github">
  <diagram id="f106602c-feb2-e66a-4537-3a34d633f6aa" name="Page-1">
    <mxGraphModel dx="954" dy="591" grid="1" gridSize="10" guides="1" tooltips="1" connect="1" arrows="1" fold="1" page="1" pageScale="1" pageWidth="1169" pageHeight="827" background="none" math="0" shadow="0">
      <root>
        <mxCell id="0" />
        <mxCell id="1" parent="0" />
        <mxCell id="507" style="edgeStyle=orthogonalEdgeStyle;rounded=0;html=1;labelBackgroundColor=none;startArrow=blockThin;startFill=1;endArrow=blockThin;endFill=1;jettySize=auto;orthogonalLoop=1;strokeColor=#4284F3;strokeWidth=2;fontSize=10;fontColor=#999999;align=center;dashed=0;endSize=4;startSize=4;" parent="1" source="495" target="497" edge="1">
          <mxGeometry relative="1" as="geometry" />
        </mxCell>
        <mxCell id="508" style="edgeStyle=orthogonalEdgeStyle;rounded=0;html=1;labelBackgroundColor=none;startArrow=blockThin;startFill=1;endArrow=blockThin;endFill=1;jettySize=auto;orthogonalLoop=1;strokeColor=#4284F3;strokeWidth=2;fontSize=10;fontColor=#999999;align=center;dashed=0;endSize=4;startSize=4;" parent="1" source="495" target="499" edge="1">
          <mxGeometry relative="1" as="geometry" />
        </mxCell>
        <mxCell id="495" value="Clients" style="strokeColor=#dddddd;fillColor=#ffffff;shadow=1;strokeWidth=1;rounded=1;absoluteArcSize=1;arcSize=2;labelPosition=center;verticalLabelPosition=middle;align=center;verticalAlign=bottom;spacingLeft=0;fontColor=#999999;fontSize=12;whiteSpace=wrap;spacingBottom=2;html=1;" parent="1" vertex="1">
          <mxGeometry x="219" y="287.5" width="70" height="85" as="geometry" />
        </mxCell>
        <mxCell id="496" value="" style="dashed=0;connectable=0;html=1;fillColor=#757575;strokeColor=none;shape=mxgraph.gcp2.laptop;part=1;" parent="495" vertex="1">
          <mxGeometry x="0.5" width="50" height="33" relative="1" as="geometry">
            <mxPoint x="-25" y="18.5" as="offset" />
          </mxGeometry>
        </mxCell>
        <mxCell id="509" style="edgeStyle=orthogonalEdgeStyle;rounded=0;html=1;labelBackgroundColor=none;startArrow=blockThin;startFill=1;endArrow=blockThin;endFill=1;jettySize=auto;orthogonalLoop=1;strokeColor=#4284F3;strokeWidth=2;fontSize=10;fontColor=#999999;align=center;dashed=0;endSize=4;startSize=4;" parent="1" source="497" target="499" edge="1">
          <mxGeometry relative="1" as="geometry" />
        </mxCell>
        <mxCell id="497" value="" style="strokeColor=#dddddd;fillColor=#ffffff;shadow=1;strokeWidth=1;rounded=1;absoluteArcSize=1;arcSize=2;fontSize=10;fontColor=#999999;align=left;html=1;" parent="1" vertex="1">
          <mxGeometry x="359" y="248" width="150" height="44" as="geometry" />
        </mxCell>
        <mxCell id="498" value="Frontend&#xa;Platform Services" style="dashed=0;connectable=0;html=1;fillColor=#757575;strokeColor=none;shape=mxgraph.gcp2.frontend_platform_services;part=1;labelPosition=right;verticalLabelPosition=middle;align=left;verticalAlign=middle;spacingLeft=5;fontColor=#000000;fontSize=12;" parent="497" vertex="1">
          <mxGeometry y="0.5" width="32" height="32" relative="1" as="geometry">
            <mxPoint x="5" y="-16" as="offset" />
          </mxGeometry>
        </mxCell>
        <mxCell id="499" value="" style="strokeColor=#dddddd;fillColor=#ffffff;shadow=1;strokeWidth=1;rounded=1;absoluteArcSize=1;arcSize=2;fontSize=10;fontColor=#999999;align=left;html=1;" parent="1" vertex="1">
          <mxGeometry x="359" y="363" width="150" height="44" as="geometry" />
        </mxCell>
        <mxCell id="500" value="Dedicated&#xa;Game Server" style="dashed=0;connectable=0;html=1;fillColor=#757575;strokeColor=none;shape=mxgraph.gcp2.dedicated_game_server;part=1;labelPosition=right;verticalLabelPosition=middle;align=left;verticalAlign=middle;spacingLeft=5;fontColor=#000000;fontSize=12;" parent="499" vertex="1">
          <mxGeometry y="0.5" width="32" height="32" relative="1" as="geometry">
            <mxPoint x="5" y="-16" as="offset" />
          </mxGeometry>
        </mxCell>
        <mxCell id="Q2K9-2T1gwmYqB9UNPAX-516" value="" style="group" vertex="1" connectable="0" parent="1">
          <mxGeometry x="730" y="100" width="410" height="410" as="geometry" />
        </mxCell>
        <mxCell id="14" value="&lt;b&gt;国信量化平台&lt;/b&gt;" style="fillColor=#F6F6F6;strokeColor=none;shadow=0;gradientColor=none;fontSize=14;align=left;spacing=10;fontColor=#717171;9E9E9E;verticalAlign=top;spacingTop=-4;fontStyle=0;spacingLeft=40;html=1;" parent="Q2K9-2T1gwmYqB9UNPAX-516" vertex="1">
          <mxGeometry width="410" height="410" as="geometry" />
        </mxCell>
        <mxCell id="15" value="" style="shape=mxgraph.gcp2.google_cloud_platform;fillColor=#F6F6F6;strokeColor=none;shadow=0;gradientColor=none;" parent="14" vertex="1">
          <mxGeometry width="23" height="20" relative="1" as="geometry">
            <mxPoint x="20" y="10" as="offset" />
          </mxGeometry>
        </mxCell>
        <mxCell id="511" value="Game Database" style="rounded=1;absoluteArcSize=1;arcSize=2;html=1;strokeColor=none;gradientColor=none;shadow=0;dashed=0;strokeColor=none;fontSize=12;fontColor=#9E9E9E;align=left;verticalAlign=top;spacing=10;spacingTop=-4;fillColor=#E1F5FE;" parent="Q2K9-2T1gwmYqB9UNPAX-516" vertex="1">
          <mxGeometry x="250" y="140" width="130" height="190" as="geometry" />
        </mxCell>
        <mxCell id="501" value="" style="strokeColor=#dddddd;fillColor=#ffffff;shadow=1;strokeWidth=1;rounded=1;absoluteArcSize=1;arcSize=2;fontSize=10;fontColor=#999999;align=left;html=1;" parent="Q2K9-2T1gwmYqB9UNPAX-516" vertex="1">
          <mxGeometry x="20" y="205" width="170" height="60" as="geometry" />
        </mxCell>
        <mxCell id="502" value="&lt;font color=&quot;#000000&quot;&gt;Analytics Backend&lt;/font&gt;&lt;br&gt;BigQuery" style="dashed=0;connectable=0;html=1;fillColor=#5184F3;strokeColor=none;shape=mxgraph.gcp2.hexIcon;prIcon=bigquery;part=1;labelPosition=right;verticalLabelPosition=middle;align=left;verticalAlign=middle;spacingLeft=5;fontColor=#999999;fontSize=12;" parent="501" vertex="1">
          <mxGeometry y="0.5" width="44" height="39" relative="1" as="geometry">
            <mxPoint x="5" y="-19.5" as="offset" />
          </mxGeometry>
        </mxCell>
        <mxCell id="503" value="" style="strokeColor=#dddddd;fillColor=#ffffff;shadow=1;strokeWidth=1;rounded=1;absoluteArcSize=1;arcSize=2;fontSize=10;fontColor=#999999;align=left;html=1;" parent="Q2K9-2T1gwmYqB9UNPAX-516" vertex="1">
          <mxGeometry x="260" y="175" width="110" height="60" as="geometry" />
        </mxCell>
        <mxCell id="504" value="Cloud&#xa;SQL" style="dashed=0;connectable=0;html=1;fillColor=#5184F3;strokeColor=none;shape=mxgraph.gcp2.hexIcon;prIcon=cloud_sql;part=1;labelPosition=right;verticalLabelPosition=middle;align=left;verticalAlign=middle;spacingLeft=5;fontColor=#999999;fontSize=12;" parent="503" vertex="1">
          <mxGeometry y="0.5" width="44" height="39" relative="1" as="geometry">
            <mxPoint x="5" y="-19.5" as="offset" />
          </mxGeometry>
        </mxCell>
        <mxCell id="505" value="" style="strokeColor=#dddddd;fillColor=#ffffff;shadow=1;strokeWidth=1;rounded=1;absoluteArcSize=1;arcSize=2;fontSize=10;fontColor=#999999;align=left;html=1;" parent="Q2K9-2T1gwmYqB9UNPAX-516" vertex="1">
          <mxGeometry x="260" y="255" width="110" height="60" as="geometry" />
        </mxCell>
        <mxCell id="506" value="Cloud&#xa;Bigtable" style="dashed=0;connectable=0;html=1;fillColor=#5184F3;strokeColor=none;shape=mxgraph.gcp2.hexIcon;prIcon=cloud_bigtable;part=1;labelPosition=right;verticalLabelPosition=middle;align=left;verticalAlign=middle;spacingLeft=5;fontColor=#999999;fontSize=12;" parent="505" vertex="1">
          <mxGeometry y="0.5" width="44" height="39" relative="1" as="geometry">
            <mxPoint x="5" y="-19.5" as="offset" />
          </mxGeometry>
        </mxCell>
        <mxCell id="512" style="edgeStyle=orthogonalEdgeStyle;rounded=0;html=1;labelBackgroundColor=none;startArrow=blockThin;startFill=1;endArrow=blockThin;endFill=1;jettySize=auto;orthogonalLoop=1;strokeColor=#4284F3;strokeWidth=2;fontSize=10;fontColor=#999999;align=center;dashed=0;endSize=4;startSize=4;" parent="Q2K9-2T1gwmYqB9UNPAX-516" source="511" target="501" edge="1">
          <mxGeometry relative="1" as="geometry" />
        </mxCell>
        <mxCell id="516" value="or" style="text;html=1;resizable=0;points=[];autosize=1;align=left;verticalAlign=top;spacingTop=-4;fontSize=10;fontColor=#999999;" parent="Q2K9-2T1gwmYqB9UNPAX-516" vertex="1">
          <mxGeometry x="300" y="237" width="20" height="10" as="geometry" />
        </mxCell>
        <mxCell id="Q2K9-2T1gwmYqB9UNPAX-518" style="edgeStyle=orthogonalEdgeStyle;rounded=0;orthogonalLoop=1;jettySize=auto;html=1;exitX=1;exitY=0.5;exitDx=0;exitDy=0;exitPerimeter=0;entryX=0.5;entryY=0;entryDx=0;entryDy=0;" edge="1" parent="1" source="Q2K9-2T1gwmYqB9UNPAX-517" target="501">
          <mxGeometry relative="1" as="geometry" />
        </mxCell>
        <mxCell id="Q2K9-2T1gwmYqB9UNPAX-517" value="" style="sketch=0;aspect=fixed;pointerEvents=1;shadow=0;dashed=0;html=1;strokeColor=none;labelPosition=center;verticalLabelPosition=bottom;verticalAlign=top;align=center;fillColor=#00188D;shape=mxgraph.azure.script_file" vertex="1" parent="1">
          <mxGeometry x="700" y="190" width="47" height="50" as="geometry" />
        </mxCell>
      </root>
    </mxGraphModel>
  </diagram>
</mxfile>
